<svg xmlns="http://www.w3.org/2000/svg" width="24" height="24" viewBox="0 0 24 24" fill="none" stroke="currentColor" stroke-width="1.75" stroke-linecap="round" stroke-linejoin="round">
  <path d="M12 5.5A2.6 2.6 0 0 0 7 6.4 2.6 2.6 0 0 0 5.4 11 2.6 2.6 0 0 0 7 15.6 2.6 2.6 0 0 0 12 16.5Z"></path><path d="M12 5.5A2.6 2.6 0 0 1 17 6.4 2.6 2.6 0 0 1 18.6 11 2.6 2.6 0 0 1 17 15.6 2.6 2.6 0 0 1 12 16.5Z"></path><path d="M12 5.5v13"></path><g fill="#B5FF6B" stroke="none"><circle cx="12" cy="11" r="1.5"></circle></g>
</svg>